<svg width="701" height="97" viewBox="0 0 701 97" fill="none" xmlns="http://www.w3.org/2000/svg">
<path d="M686.626 82.1026C683.396 80.7026 679.456 79.8026 675.526 79.9626C674.356 80.0126 672.386 78.3826 671.216 78.3226L659.256 77.7526C656.576 77.6226 653.696 77.4926 651.136 77.6226C649.486 77.7126 648.866 77.8026 647.236 77.3026C643.806 76.2426 639.906 76.3126 636.266 76.1326L626.576 75.6526L618.996 75.1426L611.716 74.6626L604.066 74.1426L588.766 73.1026L580.036 72.2826C577.846 72.0726 575.526 71.7926 573.396 72.0226C560.616 73.3626 562.996 70.4126 555.106 71.0526C551.066 71.3826 547.296 70.1426 543.466 69.9826C538.246 69.7726 533.076 70.2326 527.746 69.5826C521.896 68.8626 516.326 68.7026 510.446 68.4826C508.246 68.4026 505.976 68.1326 503.766 67.9726L482.756 66.4026L472.636 66.2426L462.956 65.5726L457.646 65.3926L447.556 65.0826L440.336 64.6526L424.556 63.3826L414.426 62.9626L401.446 62.7726C400.446 62.7626 398.716 62.1526 397.806 62.1926C391.396 62.4626 387.206 61.6826 380.856 61.6226L372.206 61.5426L364.016 61.2226L358.236 61.0526L343.556 60.7026C337.776 60.5626 332.226 60.5026 326.456 60.5426C317.896 60.5926 315.856 59.5326 305.546 60.1226C303.136 60.2626 301.126 60.2926 298.696 60.0026C291.896 59.1826 291.696 60.2126 286.246 60.0826C279.806 59.9326 273.536 59.8526 267.076 60.0526C264.396 60.1326 261.876 60.2426 259.226 60.1826L250.246 59.9526L243.066 60.1526C238.826 60.2726 234.866 60.1826 230.586 60.3226L217.446 60.7526C214.486 60.8526 211.966 61.1726 209.026 61.0526L200.416 60.7226C193.776 60.4626 188.126 61.8026 185.066 61.5326C183.426 61.3926 182.156 61.4026 180.576 61.4226L166.996 61.6726C163.246 61.7426 159.736 61.8726 155.986 61.6926C151.506 61.4726 148.676 62.7826 143.356 62.5426C139.796 62.3826 136.656 62.5726 133.106 62.6726L122.656 62.9726L113.976 63.4526L108.186 63.6226C106.566 63.6726 104.486 63.3626 102.926 63.4826L90.4858 64.4326C91.3158 66.2126 93.4358 66.2426 95.0758 67.0426C97.5058 68.2326 99.8758 69.5626 102.486 70.1126C105.096 70.6626 106.426 72.3326 106.656 75.1126L106.776 76.5626C106.806 76.9626 105.996 77.1926 105.456 77.4526L104.296 78.0026C102.506 78.8526 107.526 78.2426 106.366 84.2226C106.126 85.4726 106.986 87.2826 106.156 88.7926C104.366 92.0426 107.496 92.2826 103.866 94.5826C100.236 96.8826 95.7458 96.6626 91.7358 95.7826L86.5658 94.6426C80.3058 93.2626 77.9758 92.6426 71.9758 90.3626C68.7658 89.1426 65.7558 87.3426 62.3258 86.7226C59.8258 86.2726 57.7758 85.3626 55.4058 84.5726C52.1358 83.4826 48.5458 83.0226 45.3758 81.5426C40.3058 79.1826 34.8858 79.1026 29.4258 78.0626C29.0858 77.9926 11.9558 75.9326 10.8658 74.6026C6.60582 69.3926 8.93582 72.7026 6.34582 66.7026L2.97582 58.9026C2.23582 57.1826 1.90582 56.0326 1.89582 54.0726C1.89582 53.1326 0.90582 51.1826 0.99582 50.2526C1.06582 49.5726 2.16582 48.2126 2.03582 47.4526C1.58582 44.8826 -1.56418 31.9826 0.985818 31.2626C18.4758 26.2926 34.4258 20.0526 38.0758 18.7126L41.8958 17.3126C44.6858 16.2926 46.9858 14.7326 49.9558 14.3026C53.5058 13.7926 56.6858 12.6526 60.0758 11.5426L69.1158 8.57261C71.4558 7.80261 74.3658 8.14263 76.5258 6.81263C81.2458 3.89263 84.7158 4.82261 90.0858 3.01261C96.3958 -0.897388 100.206 -0.0673948 105.886 0.442605L114.726 1.22263L112.996 4.41261L113.626 11.3126C115.696 11.5026 117.566 13.0326 117.626 14.8526C112.726 31.2626 115.776 18.9626 108.146 28.8526L101.806 31.0626C101.396 31.2026 100.856 32.1126 100.836 32.5326C100.786 33.8026 105.066 32.8026 109.666 33.1626L117.686 33.7826C118.116 33.8126 119.526 33.6526 119.516 33.2926L119.456 31.5126L133.916 30.6826L135.126 33.0026C139.246 32.9026 143.906 33.4126 148.026 32.2126C150.346 31.5326 153.776 29.9826 155.986 30.9026C156.256 31.0326 155.956 31.7426 155.716 32.3526L164.446 32.8126C165.276 32.8526 166.556 32.4226 167.266 32.0026L163.756 31.4226C163.186 31.0226 163.976 30.8226 164.766 30.7026L168.976 30.7926C168.976 30.7926 169.066 30.7026 168.396 31.3826C168.396 31.3426 168.426 31.5826 168.486 32.0526L173.606 31.8826L172.576 30.2926L177.616 29.6226L177.546 31.1426C177.526 31.5126 178.736 31.5426 179.156 31.5426H187.426L198.776 31.8626L211.886 31.5926L219.656 31.2726C222.436 31.1526 224.646 31.0426 227.396 31.3626C228.706 31.5126 230.856 31.7026 232.076 31.6326L239.746 31.1526L251.886 30.3926C253.786 30.2726 255.706 30.5726 257.266 31.3426C263.966 31.7626 259.586 25.3426 269.936 29.4126C272.476 30.4126 275.586 30.2326 278.256 30.7126C279.946 31.0126 281.156 31.2926 283.066 30.9126C287.006 30.1426 292.506 30.1126 296.176 30.6126L297.426 32.5426C297.726 33.0126 299.126 32.4226 299.746 32.3226C303.476 31.7526 306.966 31.1926 310.816 30.9426L319.236 30.3926C319.496 30.3726 320.106 30.8526 319.966 30.9426L318.736 31.7226C318.676 31.6126 318.876 31.9726 319.216 32.5726C329.756 29.6626 328.676 31.1426 335.456 31.0226L344.256 30.8526C345.586 30.8326 346.906 31.6526 347.836 32.7226C350.806 30.9626 354.186 31.5526 357.566 31.4726C361.286 31.3826 364.686 31.4126 368.496 31.6126L373.096 31.8526C373.606 31.8826 374.516 33.3326 374.706 33.6526L378.236 32.8726C380.116 32.4626 380.936 32.2026 382.826 33.1826C384.846 34.2326 387.536 32.9626 389.766 32.5326C392.976 31.9226 403.226 32.7726 407.636 33.5026C408.116 33.6026 407.926 33.8426 407.306 34.5826C417.786 35.5326 410.216 34.1426 418.266 33.5926C422.046 33.3326 431.116 33.2126 433.656 36.1126C433.966 35.9426 435.456 34.6826 435.996 34.2726L444.146 34.6726C447.746 34.8526 451.136 34.4526 454.536 35.0026C456.566 35.3326 458.436 35.8026 460.576 35.5726C465.106 35.0726 466.226 38.7826 467.496 37.8826C467.796 37.2926 468.866 36.1026 469.496 36.1426L477.276 36.7126C478.056 36.7726 493.966 36.3126 495.766 37.8726C496.536 38.5426 497.836 39.7126 498.966 39.8626C500.346 40.0526 501.236 39.2826 502.736 38.3226C503.736 37.6826 506.006 38.2126 507.346 38.2626L515.796 38.6026L529.016 39.5626C529.536 39.6426 530.396 40.9526 530.566 41.3026C532.756 38.5926 544.016 40.2526 547.556 40.6126L561.886 42.0826C562.306 42.1226 563.186 41.0226 563.586 41.0826C563.986 41.1426 564.836 41.6326 565.326 41.6726L579.996 42.7726L586.006 43.2026L602.336 43.5326C608.786 43.6626 615.126 44.2526 621.496 45.2126C625.706 45.8426 629.866 45.3826 633.756 44.7626C637.826 45.4526 645.586 47.3126 649.136 44.7626C650.626 46.3626 656.286 47.1226 657.476 46.5726C658.576 46.0526 659.626 45.4426 660.406 45.3426C661.106 45.2626 662.096 46.4326 662.906 46.8926C663.646 47.3126 665.506 46.8026 666.446 46.8226L672.156 46.9126L680.886 47.2326C683.236 47.3226 684.686 45.7726 686.776 45.6226L692.496 45.2226C693.626 45.1426 694.726 46.7426 695.656 47.2126C699.706 49.2526 699.966 53.5126 699.956 57.7926C699.936 63.0826 701.606 75.7726 695.636 80.5926C691.476 83.9526 692.126 80.2426 686.636 82.0926L686.626 82.1026ZM346.286 32.4726C344.846 32.0226 344.216 32.2126 343.916 33.0326C344.936 33.1126 345.826 32.9126 346.286 32.4726ZM362.166 32.6426C362.166 32.3526 361.926 32.1126 361.636 32.1126C361.346 32.1126 361.106 32.3526 361.106 32.6426C361.106 32.9326 361.346 33.1726 361.636 33.1726C361.926 33.1726 362.166 32.9326 362.166 32.6426Z" fill="black"/>
</svg>
